# xmcd
#
# Track frame offsets:
#	150
#	24923
#	64791
#	109704
#	145502
#	203777
#
# Disc length: 3130 seconds
#
# Revision: 0
# Processed by: cddbd v1.5.2PL0 Copyright (c) Steve Scherf et al.
# Submitted via: audiograbber 1.83.01
#
DISCID=470c3806
DTITLE=Andreas Schaerer - The Big Wig - Hildegard Lernt Fliegen meets The Orche
DTITLE=stra Of The Lucerne Festival Academy
DYEAR=2017
DGENRE=Jazz
TTITLE0=Seven Oaks
TTITLE1=Preludium
TTITLE2=Zeusler
TTITLE3=Wig Alert
TTITLE4=If Two Colossuses
TTITLE5=Don Clemenza
EXTD=
EXTT0=
EXTT1=
EXTT2=
EXTT3=
EXTT4=
EXTT5=
PLAYORDER=
